<?xml version="1.0" encoding="UTF-8"?>
<svg width="259px" height="33px" viewBox="0 0 259 33" version="1.1" xmlns="http://www.w3.org/2000/svg" xmlns:xlink="http://www.w3.org/1999/xlink">
    <!-- Generator: Sketch 57.1 (83088) - https://sketch.com -->
    <title>Group 3</title>
    <desc>Created with Sketch.</desc>
    <g id="1_Home" stroke="none" stroke-width="1" fill="none" fill-rule="evenodd">
        <g id="Group-3" fill-rule="nonzero">
            <g id="Group" fill="#FFFFFF">
                <path d="M136.596069,0.818577071 L136.543181,0.630970047 L129.858267,0.630970047 L120.991269,31.6019164 L127.534097,31.6019164 L128.980224,25.5619175 L137.376756,25.5619175 L138.78052,31.6019164 L145.323874,31.6019164 L136.596069,0.818577071 Z M130.292157,20.0694785 L133.199145,7.51217466 L136.066928,20.0694785 L130.292157,20.0694785 Z" id="Shape"></path>
                <polygon id="Path" points="121.452525 31.6019164 115.045469 31.6019164 115.045469 0.630970047 121.452525 0.630970047"></polygon>
                <path d="M110.738401,23.1001344 C110.423442,22.5149479 108.847069,19.8763458 108.232939,19.218011 C107.419625,18.3397049 106.810757,17.9821201 106.235832,17.7516239 C110.317929,16.3875919 112.38608,13.638215 112.38608,9.57085258 C112.38608,4.24865444 109.089143,1.66109838 106.261881,1.06144002 C104.191626,0.656229898 101.726159,0.630970047 101.702478,0.630970047 L91.2741062,0.630970047 L91.2741062,31.611652 L97.5411806,31.611652 L97.5411806,18.9362057 L98.1718876,18.9362057 C100.376862,18.9362057 101.119397,18.9362057 103.129133,22.7096592 L107.83957,31.611652 L114.927589,31.611652 L110.738401,23.1001344 Z M100.171363,13.774776 L97.5411806,13.774776 L97.5411806,6.13314463 L100.681822,6.13314463 C102.537369,6.13314463 105.99139,6.13314463 105.99139,9.82634545 C105.991127,12.6307152 104.305032,13.774776 100.171363,13.774776 Z" id="Shape"></path>
                <path d="M87.8590268,5.74188005 C86.0592624,2.1302475 82.910464,0.298908246 78.5002518,0.298908246 C74.4397306,0.298908246 71.4427544,1.91659125 69.5924703,5.10722627 C68.1060859,7.67057498 67.3522372,11.2632626 67.3522372,15.7858286 C67.3522372,26.873851 70.9080876,32.0381751 78.5428778,32.0381751 C89.7764075,32.0381751 89.7764075,20.4136439 89.7764075,16.5938807 C89.7764075,11.8152957 89.1670135,8.36706277 87.8590268,5.74188005 Z M82.5036751,24.3389196 C81.9203304,25.4642987 80.6283943,26.756498 78.5855038,26.756498 C73.5830006,26.756498 73.5414271,19.8784508 73.5414271,17.1690686 C73.5414271,15.1267043 73.6664108,10.9580394 74.2918552,9.12380583 C75.2091036,6.45599711 76.9183535,5.58084849 78.5855038,5.58084849 C83.5874807,5.58084849 83.5874807,12.4588956 83.5874807,15.1267043 C83.5874807,21.8376681 83.1291196,23.0882939 82.5036751,24.3389196 Z" id="Shape"></path>
                <polygon id="Path" points="20.5488894 31.6019164 14.2910242 31.6019164 14.2910242 18.1181549 6.34206465 18.1181549 6.34206465 31.6019164 0.0841995058 31.6019164 0.0841995058 0.630970047 6.34206465 0.630970047 6.34206465 12.6683419 14.2910242 12.6683419 14.2910242 0.630970047 20.5488894 0.630970047"></polygon>
                <polygon id="Path" points="29.4066774 31.6019164 23.1488123 31.6019164 23.1488123 0.630970047 29.4066774 0.630970047"></polygon>
                <path d="M41.4737822,32.1121128 C31.9358201,32.1121128 31.434833,24.7007144 31.2206505,21.5358655 L31.2038106,21.2853719 L37.5845544,20.684398 L37.605078,20.9456796 C37.8195237,23.6911097 38.3328775,26.6202 41.729012,26.6202 C44.6481036,26.6202 45.426949,24.4294341 45.426949,23.1348667 C45.426949,20.5328389 43.0764672,19.3469414 39.2417059,17.6279559 C36.3765546,16.3423347 31.5813928,14.1905111 31.5813928,8.63044935 C31.5813928,6.33101347 32.4147048,4.23418265 33.9276646,2.72648525 C35.6384933,1.02144525 38.1521117,0.120247419 41.1969763,0.120247419 C49.8342669,0.120247419 50.218164,7.12301507 50.3444633,9.42429281 L50.3584088,9.68057506 L44.1250141,10.0500004 L44.0765994,9.72977914 C43.864785,8.32443677 43.4237901,5.40008268 40.6865168,5.40008268 C39.248284,5.40008268 37.796895,6.24102525 37.796895,8.1194636 C37.796895,10.2810228 40.4018172,11.4900751 42.9209612,12.6591326 C43.1280394,12.7551726 43.3348544,12.8512127 43.5403538,12.947779 C48.5425938,15.3043127 51.6424513,17.7589914 51.6424513,22.7088698 C51.6424513,27.0469863 48.9793788,32.1121128 41.4737822,32.1121128 Z" id="Path"></path>
                <polygon id="Path" points="62.4463004 31.6019164 56.1881721 31.6019164 56.1881721 5.95343131 50.211849 5.95343131 50.211849 0.630970047 68.4226234 0.630970047 68.4226234 5.95343131 62.4463004 5.95343131"></polygon>
            </g>
            <g id="Group-2" transform="translate(150.344747, 0.000000)">
                <path d="M3.19025089,3.1940599 L18.9366657,3.1940599 L18.9366657,28.5268866 L3.19025089,28.5268866 L3.19025089,3.1940599 Z M-4.97379915e-14,31.721793 L22.1396133,31.721793 L22.1396133,-1.42108547e-14 L-4.97379915e-14,-1.42108547e-14 L-4.97379915e-14,31.721793 Z" id="Shape" fill="#FFCE00"></path>
                <path d="M36.8465937,14.2300087 L35.4740833,14.2300087 C33.675811,11.690674 31.8936213,9.16699846 30.1110083,6.31193975 L30.095349,6.31193975 L30.095349,14.2300087 L28.5810591,14.2300087 L28.5810591,3.18813478 L29.9531463,3.18813478 C31.7514185,5.7118103 33.5340315,8.22067304 35.3005621,11.0592261 L35.3323037,11.0592261 L35.3323037,3.18813478 L36.8465937,3.18813478 L36.8465937,14.2300087 L36.8465937,14.2300087 Z" id="Path" fill="#FFFFFF"></path>
                <path d="M41.1681182,3.18813478 L37.3510749,14.2300087 L38.9914851,14.2300087 L39.9534698,11.217088 L43.2816912,11.217088 L44.1492972,14.2300087 L46.2632934,14.2300087 L42.7454683,3.18813478 L41.1681182,3.18813478 Z M40.4427149,9.86066007 C40.884136,8.40985348 41.3259802,7.06908473 41.7204235,5.36476789 L41.751742,5.36476789 C42.1935862,7.06908473 42.5876064,8.40985348 42.9981321,9.86066007 L40.4427149,9.86066007 Z" id="Shape" fill="#FFFFFF"></path>
                <polygon id="Path" fill="#FFFFFF" points="48.0454832 14.2300087 48.0454832 4.67110628 45.1430236 4.67110628 45.1430236 3.18813478 52.8405936 3.18813478 52.8405936 4.67110628 49.938134 4.67110628 49.938134 14.2300087"></polygon>
                <rect id="Rectangle" fill="#FFFFFF" x="53.4559591" y="3.18813478" width="1.87656838" height="11.0418739"></rect>
                <path d="M61.1687652,2.99895434 C58.4715685,2.99895434 56.484539,5.45956972 56.484539,8.55120978 C56.484539,11.848536 58.2819648,14.4191892 61.1687652,14.4191892 C64.0555656,14.4191892 65.8538378,11.848536 65.8538378,8.55120978 C65.8538378,5.45956972 63.8659619,2.99895434 61.1687652,2.99895434 Z M61.1687652,12.8418391 C59.1969718,12.8418391 58.5028869,10.665206 58.5028869,8.55078656 C58.5028869,6.51550975 59.2921968,4.575458 61.1687652,4.575458 C63.04618,4.575458 63.8346435,6.51550975 63.8346435,8.55078656 C63.8346435,10.6656292 63.1405586,12.8418391 61.1687652,12.8418391 Z" id="Shape" fill="#FFFFFF"></path>
                <path d="M75.2709607,14.2300087 L73.8988735,14.2300087 C72.1006013,11.690674 70.3175651,9.16699846 68.5357985,6.31193975 L68.5197161,6.31193975 L68.5197161,14.2300087 L67.0050029,14.2300087 L67.0050029,3.18813478 L68.3779365,3.18813478 C70.1762088,5.7118103 71.9579753,8.22067304 73.7249291,11.0592261 L73.7562476,11.0592261 L73.7562476,3.18813478 L75.2709607,3.18813478 L75.2709607,14.2300087 L75.2709607,14.2300087 Z" id="Path" fill="#FFFFFF"></path>
                <path d="M35.6818855,23.4672621 L35.6818855,28.0257912 C34.6720767,28.4202346 33.6152902,28.70464 32.5428445,28.70464 C29.2933425,28.70464 27.2428297,26.1809645 27.2428297,22.930616 C27.2428297,19.9185418 29.2933425,17.283982 32.6059047,17.283982 C33.6309495,17.283982 34.6564175,17.6627661 35.2874422,18.1355056 L34.6720767,19.4449559 C34.1675955,19.1300784 33.3787089,18.8613321 32.6533056,18.8613321 C30.6341112,18.8613321 29.2616008,20.4551879 29.2616008,22.9627809 C29.2616008,25.5816815 30.8393741,27.1264435 32.4637019,27.1264435 C32.9686063,27.1264435 33.3943681,27.0638066 33.7888114,26.8585437 L33.7888114,23.4668389 L35.6818855,23.4668389 L35.6818855,23.4672621 Z" id="Path" fill="#FFFFFF"></path>
                <polygon id="Path" fill="#FFFFFF" points="42.4483662 18.9565571 39.293666 18.9565571 39.293666 21.9851371 42.385306 21.9851371 42.385306 23.4672621 39.293666 23.4672621 39.293666 27.0324881 43.0163307 27.0324881 43.0163307 28.5154596 37.4010151 28.5154596 37.4010151 17.4735857 42.4483662 17.4735857"></polygon>
                <path d="M48.2846039,17.2844052 C45.5874071,17.2844052 43.5999545,19.7450206 43.5999545,22.8366607 C43.5999545,26.1331404 45.3982267,28.70464 48.2846039,28.70464 C51.1714043,28.70464 52.9696765,26.1331404 52.9696765,22.8366607 C52.9696765,19.7450206 50.9822238,17.2844052 48.2846039,17.2844052 Z M48.2846039,27.1272899 C46.3128104,27.1272899 45.6187256,24.9498104 45.6187256,22.8362374 C45.6187256,20.8009606 46.4076123,18.8609089 48.2846039,18.8609089 C50.1620187,18.8609089 50.9504821,20.8009606 50.9504821,22.8362374 C50.9504821,24.9502336 50.2563973,27.1272899 48.2846039,27.1272899 Z" id="Shape" fill="#FFFFFF"></path>
                <path d="M62.054993,23.4672621 L62.054993,28.0257912 C61.0456075,28.4202346 59.988821,28.70464 58.915952,28.70464 C55.6672964,28.70464 53.6159372,26.1809645 53.6159372,22.930616 C53.6159372,19.9185418 55.6672964,17.283982 58.9794354,17.283982 C60.0044802,17.283982 61.0303714,17.6627661 61.6609729,18.1355056 L61.0456075,19.4449559 C60.5411263,19.1300784 59.7518164,18.8613321 59.0264131,18.8613321 C57.007642,18.8613321 55.6351315,20.4551879 55.6351315,22.9627809 C55.6351315,25.5816815 57.2124816,27.1264435 58.8376559,27.1264435 C59.3421371,27.1264435 59.7678988,27.0638066 60.1623422,26.8585437 L60.1623422,23.4668389 L62.054993,23.4668389 L62.054993,23.4672621 Z" id="Path" fill="#FFFFFF"></path>
                <path d="M68.2539324,23.940848 C69.4685808,23.2937409 70.1626657,21.9851371 70.1626657,20.6600275 C70.1626657,18.5142897 68.8536386,17.4735857 66.7400656,17.4735857 L63.7897819,17.4735857 L63.7897819,28.5154596 L65.6824327,28.5154596 L65.6824327,24.3509506 L66.5030611,24.3509506 L66.5343795,24.3509506 L68.3169925,28.5154596 L70.4779664,28.5154596 L68.2539324,23.940848 Z M66.4721658,22.9314625 C66.2825622,22.9462753 65.8407179,22.9627809 65.6828559,22.9784402 L65.6828559,18.9561339 L66.5195667,18.9561339 C67.6394134,18.9561339 68.270438,19.6023946 68.270438,20.7383237 C68.270438,22.2217184 67.3706671,22.8836383 66.4721658,22.9314625 Z" id="Shape" fill="#FFFFFF"></path>
                <path d="M75.9041015,17.4735857 L74.3267514,17.4735857 L70.5097081,28.5154596 L72.1501183,28.5154596 L73.1125262,25.5025389 L76.4407476,25.5025389 L77.3083537,28.5154596 L79.4219266,28.5154596 L75.9041015,17.4735857 Z M73.6017714,24.1456877 C74.0427692,22.6940347 74.4846134,21.3532659 74.8786335,19.6497955 L74.9107984,19.6497955 C75.3526427,21.3532659 75.7466628,22.6940347 76.1563421,24.1456877 L73.6017714,24.1456877 Z" id="Shape" fill="#FFFFFF"></path>
                <path d="M81.1702586,3.18813478 L79.5924853,3.18813478 L75.7750187,14.2300087 L77.4158522,14.2300087 L78.3778368,11.217088 L81.7060582,11.217088 L82.5736643,14.2300087 L84.6872372,14.2300087 L81.1702586,3.18813478 Z M78.867082,9.86066007 C79.3089262,8.40985348 79.7503472,7.06908473 80.1447906,5.36476789 L80.176109,5.36476789 C80.6179533,7.06908473 81.0123966,8.40985348 81.4224992,9.86066007 L78.867082,9.86066007 Z" id="Shape" fill="#FFFFFF"></path>
                <polygon id="Path" fill="#FFFFFF" points="85.2395425 3.18813478 87.1169574 3.18813478 87.1169574 12.7470372 90.8548581 12.7470372 90.8548581 14.2300087 85.2395425 14.2300087"></polygon>
                <path d="M81.9138604,28.5154596 L80.0212096,28.5154596 L80.0212096,17.4735857 L82.9706469,17.4735857 C85.0850663,17.4735857 86.3940934,18.5142897 86.3940934,20.6600275 C86.3940934,22.5205135 85.021583,24.3509506 82.7658073,24.3509506 L81.882542,24.3509506 L81.882542,22.9788634 C81.9769206,22.9623577 82.4974842,22.9475449 82.7031703,22.9318857 C83.6016716,22.8840616 84.5005961,22.2217184 84.5005961,20.7387469 C84.5005961,19.6028178 83.8704179,18.9565571 82.7658073,18.9565571 L81.9138604,18.9565571 L81.9138604,28.5154596 L81.9138604,28.5154596 Z" id="Path" fill="#FFFFFF"></path>
                <polygon id="Path" fill="#FFFFFF" points="95.163686 28.5154596 93.2714583 28.5154596 93.2714583 23.1993623 89.3439539 23.1993623 89.3439539 28.5154596 87.4661159 28.5154596 87.4661159 17.4735857 89.3439539 17.4735857 89.3439539 21.7163908 93.2714583 21.7163908 93.2714583 17.5049041 95.163686 17.5049041"></polygon>
                <rect id="Rectangle" fill="#FFFFFF" x="96.9776174" y="17.4735857" width="1.87741483" height="11.0418739"></rect>
                <path d="M107.372807,19.4762743 C106.914881,19.1927153 106.158159,18.8613321 105.432332,18.8613321 C103.508363,18.8613321 102.104111,20.4551879 102.104111,22.9627809 C102.104111,25.5808351 103.650143,27.1272899 105.480157,27.1272899 C106.20556,27.1272899 106.883562,26.8907086 107.372807,26.5749846 L107.893371,27.9470718 C107.325407,28.3415152 106.316021,28.7033704 105.401014,28.7033704 C102.151512,28.7033704 100.100999,26.1805413 100.100999,22.9310393 C100.100999,19.9181186 102.136276,17.2835588 105.432332,17.2835588 C106.4104,17.2835588 107.325407,17.6936613 107.971667,18.1350824 L107.372807,19.4762743 Z" id="Path" fill="#FFFFFF"></path>
            </g>
        </g>
    </g>
</svg>